Coordinates
version=1
nRows=17
nColumns=40
inDegrees=yes

Units are S.I. units (second, meters, Newtons, ...)
If the header above contains a line with 'inDegrees', this indicates whether rotational values are in degrees (yes) or radians (no).

endheader
time	pelvis_tilt	pelvis_list	pelvis_rotation	pelvis_tx	pelvis_ty	pelvis_tz	hip_flexion_r	hip_adduction_r	hip_rotation_r	knee_angle_r	knee_angle_r_beta	ankle_angle_r	subtalar_angle_r	mtp_angle_r	hip_flexion_l	hip_adduction_l	hip_rotation_l	knee_angle_l	knee_angle_l_beta	ankle_angle_l	subtalar_angle_l	mtp_angle_l	lumbar_extension	lumbar_bending	lumbar_rotation	arm_flex_r	arm_add_r	arm_rot_r	elbow_flex_r	pro_sup_r	wrist_flex_r	wrist_dev_r	arm_flex_l	arm_add_l	arm_rot_l	elbow_flex_l	pro_sup_l	wrist_flex_l	wrist_dev_l
      0.00500000	     -4.31385924	      2.32111915	      7.43361971	     -0.73353682	      0.92963465	      0.22118130	     30.42019427	     -8.20462775	    -12.97438227	     38.00682491	      0.66334423	      0.39890557	    -21.49013079	      0.00000000	     -2.92397750	      4.40530165	     -9.53720227	      8.54110197	      0.14907035	     10.47721584	      3.76169996	      0.00000000	     -4.03945713	     -3.69496762	     -1.63055740	      9.88969731	     -4.76884486	      9.88969731	     65.37313254	     51.07184534	      0.00000000	      0.00000000	      9.88969731	     -4.76884486	      9.88969731	     65.37313254	     51.07184534	      0.00000000	      0.00000000
      0.01000000	     -4.50103244	      2.70569301	      7.55640765	     -0.72729330	      0.92846250	      0.22123025	     30.86416265	     -8.67921246	    -12.92966256	     36.63129635	      0.63933673	      0.44150830	    -21.30331394	      0.00000000	     -3.27053882	      4.77857731	     -9.39888848	      8.43326866	      0.14718830	     10.68644898	      4.08258742	      0.00000000	     -3.87870328	     -4.09125053	     -1.50439586	      9.90356881	     -4.77513318	      9.90356881	     65.38480561	     51.05138988	      0.00000000	      0.00000000	      9.90356881	     -4.77513318	      9.90356881	     65.38480561	     51.05138988	      0.00000000	      0.00000000
      0.01500000	     -4.71507532	      3.01592083	      7.68558167	     -0.72096137	      0.92724425	      0.22118363	     31.29363527	     -9.06146321	    -12.86905559	     35.14483997	      0.61339317	      0.45947839	    -21.07639404	      0.00000000	     -3.56672479	      5.08115755	     -9.30390498	      8.34796770	      0.14569952	     10.82224168	      4.30350682	      0.00000000	     -3.71859287	     -4.36605662	     -1.42616588	      9.91974075	     -4.78246315	      9.91974075	     65.39840367	     51.02761665	      0.00000000	      0.00000000	      9.91974075	     -4.78246315	      9.91974075	     65.39840367	     51.02761665	      0.00000000	      0.00000000
      0.02000000	     -4.92011472	      3.33263083	      7.80775914	     -0.71445787	      0.92596422	      0.22115573	     31.72260465	     -9.48013315	    -12.92602830	     33.69498432	      0.58808842	      0.46971319	    -20.84024687	      0.00000000	     -3.88402532	      5.38451756	     -9.29759445	      8.27006967	      0.14433995	     10.99062584	      4.43929267	      0.00000000	     -3.52740926	     -4.65343366	     -1.34578696	      9.93250175	     -4.78824586	      9.93250175	     65.40912375	     51.00892057	      0.00000000	      0.00000000	      9.93250175	     -4.78824586	      9.93250175	     65.40912375	     51.00892057	      0.00000000	      0.00000000
      0.02500000	     -5.15148335	      3.63495062	      7.93628170	     -0.70804247	      0.92466489	      0.22116396	     32.15353626	     -9.85909936	    -12.90184834	     32.18373619	      0.56171216	      0.48172364	    -20.53325402	      0.00000000	     -4.17105101	      5.66771243	     -9.20575777	      8.19360022	      0.14300530	     11.11803310	      4.64038495	      0.00000000	     -3.35823938	     -4.89995620	     -1.28235894	      9.94589567	     -4.79431445	      9.94589567	     65.42036736	     50.98935196	      0.00000000	      0.00000000	      9.94589567	     -4.79431445	      9.94589567	     65.42036736	     50.98935196	      0.00000000	      0.00000000
      0.03000000	     -5.38688081	      3.85655832	      8.06614331	     -0.70157256	      0.92340295	      0.22124118	     32.50008823	    -10.09947284	    -12.80664448	     30.51847029	      0.53264779	      0.49416876	    -20.21286476	      0.00000000	     -4.46266656	      5.86382136	     -9.09665746	      8.07110768	      0.14086740	     11.21952445	      4.86091217	      0.00000000	     -3.19104286	     -5.11776017	     -1.24541318	      9.96707689	     -4.80390966	      9.96707689	     65.43813218	     50.95851859	      0.00000000	      0.00000000	      9.96707689	     -4.80390966	      9.96707689	     65.43813218	     50.95851859	      0.00000000	      0.00000000
      0.03500000	     -5.27594163	      3.82429352	      8.13046214	     -0.69499188	      0.92275877	      0.22133780	     32.28768839	     -9.93018743	    -12.72522441	     28.43752685	      0.49632847	      0.00057251	    -20.47893137	      0.00000000	     -5.15551867	      5.74731278	     -9.04971854	      7.82371779	      0.13654964	     11.31412131	      4.98688550	      0.00000000	     -3.34953463	     -5.01804871	     -1.37172218	     10.08805075	     -4.85867024	     10.08805075	     65.53923206	     50.78484433	      0.00000000	      0.00000000	     10.08805075	     -4.85867024	     10.08805075	     65.53923206	     50.78484433	      0.00000000	      0.00000000
      0.04000000	     -5.57491716	      4.20329033	      8.22693251	     -0.68851205	      0.92122922	      0.22157235	     32.81843567	    -10.39307589	    -12.75025510	     27.07486976	      0.47254562	      0.14455917	    -19.90976452	      0.00000000	     -5.38729371	      6.10598492	     -9.03069245	      7.74400573	      0.13515840	     11.41854367	      5.20828603	      0.00000000	     -3.10989518	     -5.40513277	     -1.24604384	     10.10779884	     -4.86760017	     10.10779884	     65.55565899	     50.75698178	      0.00000000	      0.00000000	     10.10779884	     -4.86760017	     10.10779884	     65.55565899	     50.75698178	      0.00000000	      0.00000000
      0.04500000	     -5.87337680	      4.53836815	      8.27118234	     -0.68200664	      0.91968273	      0.22191426	     33.32968034	    -10.75814972	    -12.72033698	     25.68330480	      0.44825823	      0.35144199	    -19.28604181	      0.00000000	     -5.62907185	      6.41765762	     -9.08029838	      7.62896198	      0.13315051	     11.50616385	      5.42210637	      0.00000000	     -2.86837789	     -5.75097564	     -1.12522569	     10.13096924	     -4.87807499	     10.13096924	     65.57491000	     50.72443817	      0.00000000	      0.00000000	     10.13096924	     -4.87807499	     10.13096924	     65.57491000	     50.72443817	      0.00000000	      0.00000000
      0.05000000	     -6.16533081	      4.86913943	      8.28761084	     -0.67553337	      0.91814925	      0.22234850	     33.82822784	    -11.08894329	    -12.67473268	     24.30502332	      0.42420268	      0.56017078	    -18.60429794	      0.00000000	     -5.87857985	      6.72003462	     -9.15167373	      7.51221624	      0.13111291	     11.57836752	      5.65647667	      0.00000000	     -2.64181525	     -6.10515023	     -0.98066002	     10.15406878	     -4.88851471	     10.15406878	     65.59407640	     50.69215854	      0.00000000	      0.00000000	     10.15406878	     -4.88851471	     10.15406878	     65.59407640	     50.69215854	      0.00000000	      0.00000000
      0.05500000	     -6.45900553	      5.21535381	      8.29989957	     -0.66909580	      0.91660209	      0.22285889	     34.33016551	    -11.42711555	    -12.63536882	     22.97161060	      0.40093024	      0.74846254	    -17.86040683	      0.00000000	     -6.11975711	      7.03067644	     -9.21507590	      7.40920089	      0.12931495	     11.64173672	      5.90807414	      0.00000000	     -2.41699042	     -6.48107622	     -0.81758105	     10.17121403	     -4.89626136	     10.17121403	     65.60828565	     50.66830274	      0.00000000	      0.00000000	     10.17121403	     -4.89626136	     10.17121403	     65.60828565	     50.66830274	      0.00000000	      0.00000000
      0.06000000	     -6.75682352	      5.53455011	      8.27426069	     -0.66264364	      0.91504324	      0.22348749	     34.82301019	    -11.69321421	    -12.54349171	     21.64895832	      0.37784560	      1.01890114	    -17.03680990	      0.00000000	     -6.35005752	      7.30927566	     -9.33053679	      7.30043574	      0.12741664	     11.67869008	      6.16072743	      0.00000000	     -2.17838769	     -6.83842279	     -0.63824758	     10.18945060	     -4.90449920	     10.18945060	     65.62338331	     50.64303098	      0.00000000	      0.00000000	     10.18945060	     -4.90449920	     10.18945060	     65.62338331	     50.64303098	      0.00000000	      0.00000000
      0.06500000	     -7.04610117	      5.82873888	      8.18737431	     -0.65615407	      0.91347761	      0.22424858	     35.29989077	    -11.88153965	    -12.40613761	     20.35141895	      0.35519927	      1.37344958	    -16.12511468	      0.00000000	     -6.58766358	      7.55510640	     -9.52336680	      7.19249648	      0.12553274	     11.69547927	      6.43402541	      0.00000000	     -1.92743482	     -7.17573582	     -0.41016200	     10.21422040	     -4.91568546	     10.21422040	     65.64386564	     50.60886173	      0.00000000	      0.00000000	     10.21422040	     -4.91568546	     10.21422040	     65.64386564	     50.60886173	      0.00000000	      0.00000000
      0.07000000	     -7.33549880	      6.14099223	      8.13059910	     -0.64974091	      0.91192906	      0.22503888	     35.78471447	    -12.10091771	    -12.30352856	     19.13398856	      0.33395110	      1.66414955	    -15.19235948	      0.00000000	     -6.80526481	      7.81130090	     -9.67554647	      7.11362176	      0.12415612	     11.71354018	      6.72436613	      0.00000000	     -1.70969410	     -7.53272190	     -0.16693732	     10.23480511	     -4.92497895	     10.23480511	     65.66086468	     50.58060628	      0.00000000	      0.00000000	     10.23480511	     -4.92497895	     10.23480511	     65.66086468	     50.58060628	      0.00000000	      0.00000000
      0.07500000	     -7.60998810	      6.43360529	      7.93613826	     -0.64316064	      0.91028601	      0.22611760	     36.32067227	    -12.22275124	    -12.17332706	     18.08797749	      0.31569476	      2.23121298	    -13.99242077	      0.00000000	     -6.94106038	      7.99754200	    -10.34706155	      7.23757424	      0.12631950	     11.89442934	      7.47147588	      0.00000000	     -1.44346791	     -7.66577369	      0.86341076	     10.41315336	     -5.00539554	     10.41315336	     65.80727197	     50.34130268	      0.00000000	      0.00000000	     10.41315336	     -5.00539554	     10.41315336	     65.80727197	     50.34130268	      0.00000000	      0.00000000
      0.08000000	     -7.92015828	      6.72558046	      7.90243976	     -0.63676341	      0.90873218	      0.22692621	     36.80015370	    -12.41130103	    -12.04472286	     16.96336623	      0.29606659	      2.49159028	    -13.05470157	      0.00000000	     -7.11715343	      8.22726155	    -10.41972361	      7.19399792	      0.12555895	     11.86822805	      7.70027215	      0.00000000	     -1.22413176	     -8.02020266	      1.00122171	     10.43325621	     -5.01444834	     10.43325621	     65.82368150	     50.31488963	      0.00000000	      0.00000000	     10.43325621	     -5.01444834	     10.43325621	     65.82368150	     50.31488963	      0.00000000	      0.00000000
      0.08500000	     -8.19677142	      6.98578037	      7.82320495	     -0.63020720	      0.90721043	      0.22783794	     37.22566729	    -12.52373175	    -11.86122641	     15.90087425	      0.27752261	      2.90867532	    -12.00843952	      0.00000000	     -7.32229015	      8.41184880	    -10.62861633	      7.14817514	      0.12475919	     11.81636662	      7.96442808	      0.00000000	     -0.96727044	     -8.34012601	      1.19510400	     10.46122247	     -5.02703845	     10.46122247	     65.84647789	     50.27834176	      0.00000000	      0.00000000	     10.46122247	     -5.02703845	     10.46122247	     65.84647789	     50.27834176	      0.00000000	      0.00000000
